<svg width="109" height="30" viewBox="0 0 109 30" version="1.1" xmlns="http://www.w3.org/2000/svg" xmlns:xlink="http://www.w3.org/1999/xlink"><title>Upstox logo blue</title><defs><path id="path-1" d="M20.528 29.4H0V.583h20.528z"/><path id="path-3" d="M11.139 7.993V.592H.564v7.401z"/></defs><g id="Wireframes-4.0" stroke="none" stroke-width="1" fill="none" fill-rule="evenodd"><g id="Desktop-HD" transform="translate(-61 -27)"><g id="nav" transform="translate(61 27)"><g id="Upstox-logo-blue"><g id="Page-1"><path d="M9.924 25.9c-3.625-.18-6.408-3.326-6.408-6.978v-5.72c0-.59.474-1.067 1.06-1.067.586 0 1.061.478 1.061 1.067v5.78c0 2.423 1.784 4.544 4.181 4.77 2.751.26 5.072-1.918 5.072-4.633V6.678c0-.59.475-1.068 1.06-1.068.587 0 1.062.478 1.062 1.068v12.441c0 3.857-3.213 6.972-7.088 6.78" id="Fill-1" fill="#0046BB" fill-rule="nonzero"/><g id="Group-5" transform="translate(0 .017)"><g id="Fill-3-Clipped"><mask id="mask-2" fill="#fff"><use xlink:href="#path-1"/></mask><path d="M18.406 1.647v17.227c0 4.435-3.422 8.218-7.828 8.386-4.632.176-8.457-3.564-8.457-8.185l.007-6.215c0-1.258 1.02-2.243 2.321-2.243a2.331 2.331 0 0 1 2.322 2.335l.005 5.637c0 2.014 1.696 3.638 3.727 3.501 1.851-.125 3.249-1.757 3.249-3.624v-8.054c0-.59-.475-1.067-1.061-1.067s-1.06.478-1.06 1.067v8.124c0 .664-.446 1.275-1.094 1.401-.873.17-1.64-.5-1.64-1.348v-5.701h-.005c-.034-2.435-2.014-4.405-4.443-4.405-2.49 0-4.442 1.922-4.442 4.376L0 19.075c0 5.634 4.51 10.229 10.088 10.324 5.741.097 10.44-4.783 10.44-10.559L20.52 1.646A1.06 1.06 0 0 0 19.464.583a1.06 1.06 0 0 0-1.058 1.064" id="Fill-3" fill="#0046BB" fill-rule="nonzero" mask="url(#mask-2)"/></g></g><path d="M36.82 17.392a3.62 3.62 0 0 0 3.616 3.662c2.263 0 4.386-1.878 4.386-4.437v-5.445c0-.516.303-.822.84-.822.537 0 .887.306.887.822v10.515c0 1.08-1.68 1.104-1.68-.023v-1.48c-.84 1.715-2.637 2.466-4.456 2.466-2.706 0-5.297-1.878-5.297-5.258v-6.22c0-.516.304-.822.84-.822.514 0 .863.306.863.822v6.22z" id="Fill-6" fill="#0046BB" fill-rule="nonzero"/><path d="M51.84 15.585v1.854c0 2.066 1.587 3.521 3.711 3.615 1.656 0 3.313-.892 3.989-2.512a5.711 5.711 0 0 0 .35-1.737c.023-1.526-.466-2.933-1.727-3.99-.677-.54-1.516-.822-2.403-.891-2.122 0-3.92 1.361-3.92 3.66m3.78 7.09c-1.562 0-3.079-.634-3.78-1.878v5.046c0 1.08-1.703 1.08-1.703 0V11.267c0-.518.327-.822.863-.822.537 0 .794.304.794.822v1.102c.793-1.455 2.427-2.065 3.826-2.065.724 0 1.517.14 2.241.445l-.024-.022c2.543 1.056 3.827 3.38 3.756 6.102-.093 3.333-2.473 5.844-5.973 5.844" id="Fill-8" fill="#0046BB" fill-rule="nonzero"/><path d="M65.322 19.458c.233 1.056 2.054 1.596 3.756 1.596 1.144 0 3.594-.516 3.594-2.136 0-1.502-1.773-1.573-3.663-1.713-2.52-.235-5.227-.447-5.227-3.333 0-2.512 2.848-3.591 5.086-3.591 1.797 0 4.293.305 5.11 2.417.327 1.056-1.283 1.502-1.586.61-.513-1.36-2.474-1.455-3.524-1.455-1.353 0-3.382.586-3.382 2.041 0 1.503 1.726 1.48 3.592 1.62 2.567.236 5.297.47 5.297 3.404 0 2.958-3.36 3.685-5.297 3.685-1.936 0-4.922-.493-5.39-2.84-.28-.985 1.425-1.48 1.634-.305" id="Fill-10" fill="#0046BB" fill-rule="nonzero"/><path d="M82.211 10.467c1.05 0 1.05 1.48 0 1.48h-2.544v6.337c0 1.338.21 2.746 1.797 2.746.35 0 .863-.117 1.097-.258.98-.564 1.75.822.7 1.409-.584.328-1.166.399-1.797.399-2.8 0-3.476-2.066-3.476-4.296v-6.337h-1.54c-1.097 0-1.027-1.48 0-1.48h1.54V7.745c0-1.126 1.68-1.103 1.68 0v2.722h2.543z" id="Fill-12" fill="#0046BB" fill-rule="nonzero"/><path d="M90.911 11.876c-.444 0-.886.07-1.237.165-1.96.515-3.102 2.347-3.102 4.46 0 1.056.326 2.16 1.027 2.98a4.337 4.337 0 0 0 3.335 1.55c1.26 0 2.543-.61 3.36-1.55.653-.798 1.028-1.924 1.028-2.934 0-2.135-1.144-3.99-3.127-4.507a5.5 5.5 0 0 0-1.284-.164m-4.643 8.638c-1.05-1.244-1.493-2.747-1.423-4.506.233-2.606 1.75-4.789 4.316-5.517.56-.163 1.19-.21 1.773-.21.56 0 1.12.046 1.727.21 2.543.728 4.13 2.888 4.34 5.517.094 1.76-.373 3.262-1.4 4.506-1.144 1.385-2.824 2.112-4.667 2.112-1.866 0-3.523-.727-4.666-2.112" id="Fill-14" fill="#0046BB" fill-rule="nonzero"/><path d="M105.335 15.622l3.231-3.92a.896.896 0 0 0 .202-.658.897.897 0 0 0-.89-.817.89.89 0 0 0-.691.325l-3.052 3.701 1.2 1.369z" id="Fill-16" fill="#0046BB" fill-rule="nonzero"/><path d="M101.74 15.67l1.158-1.405-3.237-3.693a.918.918 0 0 0-1.264-.08.9.9 0 0 0-.08 1.272l3.423 3.905z" id="Fill-18" fill="#0046BB" fill-rule="nonzero"/><g id="Group-22" transform="translate(97.812 14.417)"><g id="Fill-20-Clipped"><mask id="mask-4" fill="#fff"><use xlink:href="#path-3"/></mask><path d="M10.928 6.54L5.713.593.76 6.602a.848.848 0 0 0-.191.621.846.846 0 0 0 .84.77c.253 0 .49-.112.65-.307l3.695-4.481 3.91 4.46a.865.865 0 0 0 1.19.075.854.854 0 0 0 .075-1.2" id="Fill-20" fill="#0046BB" fill-rule="nonzero" mask="url(#mask-4)"/></g></g></g></g></g></g></g></svg>