<?xml version="1.0" encoding="UTF-8"?>
<svg width="195px" height="75px" viewBox="0 0 195 75" version="1.1" xmlns="http://www.w3.org/2000/svg" xmlns:xlink="http://www.w3.org/1999/xlink">
    <title>iifl logo</title>
    <g id="Mailers" stroke="none" stroke-width="1" fill="none" fill-rule="evenodd">
        <g id="iifl-logo">
            <path d="M37.5,0 C58.1375839,0 75,16.8624161 75,37.5 C75,58.1375839 58.1375839,75 37.5,75 C16.8624161,75 0,58.3892617 0,37.5 C0,16.8624161 16.8624161,0 37.5,0 L37.5,0 Z" id="Path" fill="#F37021"></path>
            <path d="M33.3552124,38 L34.8610039,34.5 L30.8455598,34.5 L33.3552124,38 L33.3552124,38 Z M32.8532819,30.75 L35.1119691,34.5 L36.6177606,30.75 L32.8532819,30.75 L32.8532819,30.75 Z M32.8532819,30.75 L35.1119691,26.25 L30.3436293,26.25 L32.8532819,30.75 L32.8532819,30.75 Z M20.5559846,26.25 L25.3243243,35.5 L30.0926641,26.25 L20.5559846,26.25 L20.5559846,26.25 Z M25.3243243,35.5 L20.3050193,45.25 L30.3436293,45.25 L30.3436293,45.25 L27.8339768,40.5 L25.3243243,35.5 L25.3243243,35.5 Z M27.8339768,30.75 L30.3436293,36 L31.0965251,34.5 L31.0965251,34.5 L32.8532819,30.75 L27.8339768,30.75 L27.8339768,30.75 Z M30.3436293,36 L28.0849421,40.5 L32.6023166,40.5 L30.3436293,36 L30.3436293,36 Z M33.3552124,38 L32.3513514,40.5 L35.1119691,40.5 L33.3552124,38 L33.3552124,38 Z M30.3436293,45.25 L34.3590734,45.25 L32.1003861,40.5 L30.3436293,45.25 L30.3436293,45.25 L30.3436293,45.25 Z M34.8610039,54 L30.3436293,45.25 L26.5791506,54 L34.8610039,54 L34.8610039,54 Z M38.3745174,45.25 L38.3745174,45.25 L38.3745174,45.25 L37.6216216,44.25 L35.1119691,40.5 L37.1196911,40.5 L37.3706564,40.5 L38.3745174,40.5 L38.3745174,40.5 L38.3745174,40.5 L38.3745174,40.5 L39.3783784,40.5 L41.6370656,40.5 L38.3745174,45.25 L38.3745174,45.25 Z M26.0772201,19 L32.8532819,10.25 L20.8069498,10.25 L26.0772201,19 L26.0772201,19 Z M33.8571429,19 L26.0772201,19 L30.3436293,26 L33.8571429,19 L33.8571429,19 Z M20.5559846,26.25 L26.0772201,19.25 L17.042471,19.25 L20.5559846,26.25 L20.5559846,26.25 Z M20.5559846,26.25 L6.5019305,26.25 L13.5289575,35.75 L20.5559846,26.25 L20.5559846,26.25 Z M20.3050193,45.25 L15.7876448,54 L26.5791506,54 L20.3050193,45.25 L20.3050193,45.25 Z M6,45.25 L20.3050193,45.25 L13.2779923,35.75 L6,45.25 L6,45.25 Z M23.5675676,61 L31.8494208,61 L26.5791506,54 L23.5675676,61 L23.5675676,61 Z M43.6447876,38 L42.1389961,34.5 L46.1544402,34.5 L43.6447876,38 L43.6447876,38 Z M44.1467181,30.75 L42.1389961,34.5 L40.6332046,30.75 L44.1467181,30.75 L44.1467181,30.75 Z M44.1467181,30.75 L41.8880309,26.25 L46.6563707,26.25 L44.1467181,30.75 L44.1467181,30.75 Z M56.4440154,26.25 L51.6756757,35.5 L46.9073359,26.25 L56.4440154,26.25 L56.4440154,26.25 Z M51.6756757,35.5 L56.6949807,45.25 L46.6563707,45.25 L46.6563707,45.25 L49.1660232,40.5 L51.6756757,35.5 L51.6756757,35.5 Z M49.1660232,30.75 L46.6563707,36 L45.9034749,34.5 L45.9034749,34.5 L44.1467181,30.75 L49.1660232,30.75 L49.1660232,30.75 Z M46.6563707,36 L48.9150579,40.5 L44.3976834,40.5 L46.6563707,36 L46.6563707,36 Z M43.6447876,38 L44.6486486,40.5 L41.8880309,40.5 L43.6447876,38 L43.6447876,38 Z M46.6563707,45.25 L42.6409266,45.25 L44.8996139,40.5 L46.6563707,45.25 L46.6563707,45.25 L46.6563707,45.25 Z M42.1389961,54 L46.6563707,45.25 L50.4208494,54 L42.1389961,54 L42.1389961,54 Z M38.3745174,30.75 L38.3745174,30.75 L38.6254826,30.75 L39.1274131,30.75 L40.3822394,30.75 L38.3745174,26.25 L38.3745174,26.25 L38.3745174,26.25 L36.3667954,30.75 L37.6216216,30.75 L37.8725869,30.75 L38.3745174,30.75 L38.3745174,30.75 L38.3745174,30.75 L38.3745174,30.75 Z M38.3745174,40.5 L38.3745174,40.5 L38.3745174,40.5 L38.8764479,39.75 L41.8880309,34.5 L38.8764479,34.5 L38.3745174,34.5 L38.3745174,34.5 L37.8725869,34.5 L34.8610039,34.5 L38.3745174,40.5 L38.3745174,40.5 L38.3745174,40.5 L38.3745174,40.5 L38.3745174,40.5 Z M38.3745174,54 L38.3745174,54 L42.3899614,45.25 L39.8803089,45.25 L39.6293436,45.25 L38.3745174,45.25 L38.3745174,45.25 L38.3745174,45.25 L37.3706564,45.25 L37.1196911,45.25 L34.6100386,45.25 L37.6216216,52 L38.3745174,54 L38.3745174,54 L38.3745174,54 L38.3745174,54 L38.3745174,54 L38.3745174,54 Z M50.9227799,19 L44.1467181,10.25 L56.1930502,10.25 L50.9227799,19 L50.9227799,19 Z M43.1428571,19 L50.9227799,19 L46.6563707,26 L43.1428571,19 L43.1428571,19 Z M56.4440154,26.25 L50.9227799,19.25 L59.957529,19.25 L56.4440154,26.25 L56.4440154,26.25 Z M56.4440154,26.25 L70.4980695,26.25 L63.7220077,35.75 L56.4440154,26.25 L56.4440154,26.25 Z M56.6949807,45.25 L61.2123552,54 L50.4208494,54 L56.6949807,45.25 L56.6949807,45.25 Z M71,45.25 L56.6949807,45.25 L63.7220077,35.75 L71,45.25 L71,45.25 Z M53.4324324,61 L45.1505792,61 L50.4208494,54 L53.4324324,61 L53.4324324,61 Z M38.3745174,10.25 L38.3745174,10.25 L39.8803089,10.25 L41.1351351,10.25 L44.1467181,10.25 L38.6254826,3 L38.6254826,3 L38.6254826,3 L33.1042471,10.25 L36.1158301,10.25 L36.8687259,10.25 L38.3745174,10.25 L38.3745174,10.25 L38.3745174,10.25 L38.3745174,10.25 Z M38.3745174,19 L38.3745174,19 L38.8764479,19 L39.1274131,19 L42.8918919,19 L38.3745174,10.25 L38.3745174,10.25 L38.3745174,10.25 L33.8571429,19 L37.6216216,19 L37.8725869,19 L38.3745174,19 L38.3745174,19 L38.3745174,19 Z M38.3745174,26.25 L39.3783784,26.25 L41.8880309,26.25 L39.8803089,22 L38.3745174,19.25 L38.3745174,19.25 L38.3745174,19.25 L38.3745174,19.25 L38.3745174,19.25 L38.3745174,19.25 L34.8610039,26.25 L37.6216216,26.25 L38.3745174,26.25 L38.3745174,26.25 L38.3745174,26.25 Z M38.3745174,61 L38.3745174,61 L38.3745174,61 L38.3745174,61 L39.3783784,59.25 L42.1389961,54 L39.8803089,54 L39.6293436,54 L38.3745174,54 L38.3745174,54 L38.3745174,54 L38.3745174,54 L37.3706564,54 L37.1196911,54 L34.8610039,54 L38.3745174,61 L38.3745174,61 L38.3745174,61 L38.3745174,61 Z M38.3745174,70 L38.3745174,70 L45.1505792,61 L40.6332046,61 L39.3783784,61 L38.6254826,61 L38.6254826,61 L38.6254826,61 L38.6254826,61 L38.1235521,61 L36.6177606,61 L32.1003861,61 L38.3745174,70 L38.3745174,70 L38.3745174,70 Z" id="Shape" fill="#FFFFFF"></path>
            <path d="M118.561364,12 L110.488636,12 C107.965909,12 105.695455,14.0304569 105.695455,16.822335 L105.695455,62 L113.768182,62 C116.290909,62 118.561364,59.9695431 118.561364,57.177665 L118.561364,12 L118.561364,12 Z M132.184091,12 L139.247727,12 L140.509091,12 L159.681818,12 L159.681818,20.3756345 C159.681818,22.9137056 157.663636,24.9441624 155.140909,24.9441624 L140.509091,24.9441624 L140.509091,31.2893401 L156.402273,31.2893401 L156.402273,39.6649746 C156.402273,42.2030457 154.384091,44.2335025 151.861364,44.2335025 L140.256818,44.2335025 L140.256818,57.4314721 C140.256818,59.9695431 138.238636,62 135.715909,62 L127.390909,62 L127.390909,16.5685279 C127.390909,14.0304569 129.661364,12 132.184091,12 L132.184091,12 Z M96.8659091,12 L88.7931818,12 C86.2704545,12 84,14.0304569 84,16.822335 L84,62 L92.0727273,62 C94.5954545,62 96.8659091,59.9695431 96.8659091,57.177665 L96.8659091,12 L96.8659091,12 Z M171.034091,12 C168.511364,12 166.493182,14.0304569 166.493182,16.5685279 L166.493182,62 C174.565909,62 182.386364,62 190.459091,62 C192.981818,62 195,59.9695431 195,57.4314721 L195,49.0558376 L179.359091,49.0558376 L179.359091,12 L171.034091,12 Z" id="Shape" fill="#242155"></path>
        </g>
    </g>
</svg>